<svg viewBox="0 0 640 260" xmlns="http://www.w3.org/2000/svg" role="img" aria-label="Wealth page showing a net worth summary strip and two account cards with colored type dots">
  <rect width="640" height="260" rx="14" fill="#eef3f7"/>

  <rect x="20" y="20" width="600" height="60" rx="10" fill="#ffffff" stroke="#dfe7ef"/>
  <text x="40" y="45" font-family="Inter, sans-serif" font-size="12" font-weight="700" fill="#6b7280">NET WORTH</text>
  <text x="40" y="68" font-family="Inter, sans-serif" font-size="20" font-weight="900" fill="#1d2945">$284,050</text>
  <text x="560" y="45" font-family="Inter, sans-serif" font-size="12" fill="#6b7280" text-anchor="end">Assets $324,050</text>
  <text x="560" y="63" font-family="Inter, sans-serif" font-size="12" fill="#e05252" text-anchor="end">Liabilities $40,000</text>

  <rect x="20" y="96" width="290" height="150" rx="10" fill="#ffffff" stroke="#dfe7ef"/>
  <circle cx="46" cy="122" r="7" fill="#3569d4"/>
  <text x="62" y="127" font-family="Inter, sans-serif" font-size="13" font-weight="800" fill="#1d2945">Checking</text>
  <text x="280" y="127" font-family="Inter, sans-serif" font-size="13" font-weight="800" fill="#1d2945" text-anchor="end">$5,240.18</text>
  <line x1="40" y1="140" x2="290" y2="140" stroke="#dfe7ef"/>
  <circle cx="46" cy="164" r="7" fill="#13936d"/>
  <text x="62" y="169" font-family="Inter, sans-serif" font-size="13" font-weight="800" fill="#1d2945">Investments</text>
  <text x="280" y="169" font-family="Inter, sans-serif" font-size="13" font-weight="800" fill="#1d2945" text-anchor="end">$18,810.00</text>
  <text x="40" y="210" font-family="Inter, sans-serif" font-size="11" fill="#6b7280">Balance computed live from linked</text>
  <text x="40" y="224" font-family="Inter, sans-serif" font-size="11" fill="#6b7280">transactions, paychecks, and transfers.</text>

  <rect x="330" y="96" width="290" height="150" rx="10" fill="#ffffff" stroke="#dfe7ef"/>
  <circle cx="356" cy="122" r="7" fill="#e05252"/>
  <text x="372" y="127" font-family="Inter, sans-serif" font-size="13" font-weight="800" fill="#1d2945">Credit card</text>
  <text x="590" y="127" font-family="Inter, sans-serif" font-size="13" font-weight="800" fill="#e05252" text-anchor="end">-$2,140.55</text>
  <line x1="350" y1="140" x2="600" y2="140" stroke="#dfe7ef"/>
  <text x="350" y="162" font-family="Inter, sans-serif" font-size="11" font-weight="700" fill="#6b7280">DEBT PAYOFF TRACKER</text>
  <rect x="350" y="172" width="250" height="10" rx="5" fill="#fdeaea"/>
  <rect x="350" y="172" width="90" height="10" rx="5" fill="#e05252"/>
  <text x="350" y="200" font-family="Inter, sans-serif" font-size="11" fill="#6b7280">Estimated payoff: Mar 2028</text>
</svg>
